<?xml version="1.0" standalone="no"?><!DOCTYPE svg PUBLIC "-//W3C//DTD SVG 1.1//EN" "http://www.w3.org/Graphics/SVG/1.1/DTD/svg11.dtd"><svg t="1553762827457" class="icon" style="" viewBox="0 0 1200 1024" version="1.1" xmlns="http://www.w3.org/2000/svg" p-id="979" xmlns:xlink="http://www.w3.org/1999/xlink" width="150" height="128"><defs><style type="text/css"></style></defs><path d="M1143.376117 58.42285c0-32.285137-25.601861-58.42285-57.157642-58.42285H57.232066C25.646515 0 0.074424 26.182368 0.074424 58.42285v131.611426h1143.152845zM921.473479 378.728919a363.844117 363.844117 0 0 1 221.78356 75.108715v-126.267782H0v475.554561c0 32.270252 25.601861 58.407966 57.157642 58.407966h517.708322a364.201352 364.201352 0 0 1-19.186511-117.009434c0-201.689076 164.090065-365.794026 365.794026-365.794026z" p-id="980"></path><path d="M921.473479 465.983633c-153.596279 0-278.554197 124.957918-278.554197 278.554197s124.957918 278.628621 278.554197 278.628621 278.554197-124.957918 278.554197-278.628621-124.957918-278.554197-278.554197-278.554197z m132.474744 319.933948h-87.820336v87.820336a41.335097 41.335097 0 0 1-41.216018 41.216019A41.335097 41.335097 0 0 1 883.710735 873.737917v-87.820336h-87.820336a41.216019 41.216019 0 1 1 0-82.417152h87.820336v-87.89476a41.335097 41.335097 0 0 1 41.201134-41.201134 41.335097 41.335097 0 0 1 41.216018 41.201134v87.89476h87.820336a41.216019 41.216019 0 1 1 0 82.417152z" p-id="981"></path></svg>