<?xml version="1.0" standalone="no"?><!DOCTYPE svg PUBLIC "-//W3C//DTD SVG 1.1//EN" "http://www.w3.org/Graphics/SVG/1.1/DTD/svg11.dtd"><svg t="1553762820655" class="icon" style="" viewBox="0 0 1195 1024" version="1.1" xmlns="http://www.w3.org/2000/svg" p-id="854" xmlns:xlink="http://www.w3.org/1999/xlink" width="149.375" height="128"><defs><style type="text/css"></style></defs><path d="M1136.376309 71.40166c0-31.760114-25.211788-57.484635-56.254077-57.484636H67.387697C36.301459 13.917024 11.133619 39.670844 11.133619 71.40166v129.545522h1125.081546zM917.966924 386.658884a358.063062 358.063062 0 0 1 218.27754 73.921374v-124.286352H11.060372v468.036852c0 31.774764 25.211788 57.499285 56.254077 57.499285h509.524235a358.912732 358.912732 0 0 1-18.868555-115.159714c0-198.515365 161.49608-360.011445 359.996795-360.011445z" p-id="855"></path><path d="M917.966924 472.534249c-151.168183 0-274.15073 122.982546-274.150729 274.15073s122.982546 274.209328 274.150729 274.209327 274.15073-123.055794 274.15073-274.209327-123.055794-274.15073-274.15073-274.15073z m159.562346 302.746552l-112.801144 112.801145a40.37402 40.37402 0 1 1-57.133047-57.133048l43.860601-43.8606H794.237253a40.417969 40.417969 0 1 1 0-80.835937h157.218427l-43.860601-43.860601a40.38867 40.38867 0 0 1 57.133047-57.133048l112.801144 112.801145a40.476567 40.476567 0 0 1 0 57.133047z m0 0" p-id="856"></path></svg>